<svg width="427" height="422" viewBox="0 0 427 422" fill="none" xmlns="http://www.w3.org/2000/svg">
<circle cx="89" cy="89" r="89" transform="matrix(-0.996337 0.0855173 0.0855173 0.996337 367.425 46.4043)" fill="white"/>
<circle cx="89" cy="89" r="89" transform="matrix(-0.996337 0.0855173 0.0855173 0.996337 297.916 113.595)" fill="white"/>
<circle cx="89" cy="89" r="89" transform="matrix(-0.996337 0.0855173 0.0855173 0.996337 243.104 12.9131)" fill="white"/>
<circle cx="89" cy="89" r="89" transform="matrix(-0.996337 0.0855173 0.0855173 0.996337 407.662 164.396)" fill="white"/>
<circle cx="89" cy="89" r="89" transform="matrix(-0.996337 0.0855173 0.0855173 0.996337 323.918 217.753)" fill="white"/>
<circle cx="89" cy="89" r="89" transform="matrix(-0.996337 0.0855173 0.0855173 0.996337 230.284 167.576)" fill="white"/>
<circle cx="89" cy="89" r="89" transform="matrix(-0.996337 0.0855173 0.0855173 0.996337 183.846 94.2788)" fill="white"/>
<circle cx="45.499" cy="366.5" r="20.5" fill="white"/>
</svg>
