<svg width="70" height="69" viewBox="0 0 70 69" fill="none" xmlns="http://www.w3.org/2000/svg">
<path d="M25.7262 53.9996C23.1804 53.4133 21.2098 52.0048 19.8144 49.7743C18.419 47.5438 18.0144 45.1556 18.6008 42.6098C19.1871 40.0639 20.5956 38.0933 22.8261 36.6979C25.0566 35.3025 27.4448 34.898 29.9906 35.4843C30.8778 35.6887 31.6612 35.991 32.3408 36.3912C33.0678 36.7618 33.7297 37.2391 34.3263 37.8234L39.9499 13.4064L53.8364 16.6047L51.7042 25.8623L42.4465 23.7301L37.1161 46.8742C36.5297 49.42 35.1213 51.3906 32.8908 52.786C30.6603 54.1814 28.2721 54.586 25.7262 53.9996Z" fill="#1D1B20"/>
</svg>
