<svg width="59" height="59" viewBox="0 0 59 59" fill="none" xmlns="http://www.w3.org/2000/svg">
<path d="M23.9093 50.495C21.2975 50.4344 19.0832 49.4525 17.2664 47.5494C15.4497 45.6464 14.5716 43.3889 14.6323 40.7771C14.6929 38.1653 15.6747 35.9511 17.5778 34.1343C19.4809 32.3176 21.7383 31.4395 24.3501 31.5001C25.2603 31.5213 26.0886 31.6593 26.835 31.9141C27.6218 32.1304 28.3663 32.4644 29.0686 32.9162L29.65 7.86674L43.8961 8.1974L43.6757 17.6948L34.1783 17.4744L33.6271 41.218C33.5665 43.8298 32.5847 46.0441 30.6816 47.8608C28.7785 49.6776 26.521 50.5556 23.9093 50.495Z" fill="#1D1B20"/>
</svg>
