<svg width="73" height="73" viewBox="0 0 73 73" fill="none" xmlns="http://www.w3.org/2000/svg">
<path d="M38.359 58.3825C35.8666 59.1655 33.4541 58.9484 31.1216 57.7311C28.7891 56.5139 27.2314 54.659 26.4483 52.1667C25.6653 49.6743 25.8824 47.2618 27.0997 44.9293C28.3169 42.5968 30.1718 41.039 32.6642 40.256C33.5327 39.9831 34.3614 39.8473 35.15 39.8484C35.9646 39.8 36.7771 39.8767 37.5873 40.0785L30.0773 16.1742L43.6721 11.9031L46.5195 20.9663L37.4563 23.8137L44.5748 46.4718C45.3578 48.9642 45.1407 51.3767 43.9235 53.7092C42.7062 56.0417 40.8514 57.5995 38.359 58.3825Z" fill="#1D1B20"/>
</svg>
