<svg width="84" height="83" viewBox="0 0 84 83" fill="none" xmlns="http://www.w3.org/2000/svg">
<path d="M43.7993 66.3552C40.9009 67.2212 38.1114 66.9306 35.4306 65.4834C32.7499 64.0361 30.9765 61.8633 30.1105 58.9649C29.2444 56.0666 29.535 53.277 30.9823 50.5963C32.4295 47.9155 34.6023 46.1421 37.5007 45.2761C38.5107 44.9743 39.4723 44.8305 40.3854 44.8446C41.3293 44.8018 42.2687 44.9038 43.2035 45.1506L34.8972 17.3526L50.7065 12.6286L53.8558 23.1682L43.3163 26.3175L51.1895 52.6663C52.0556 55.5647 51.765 58.3542 50.3177 61.035C48.8705 63.7157 46.6977 65.4891 43.7993 66.3552Z" fill="#1D1B20"/>
</svg>
