<svg width="1920" height="1080" viewBox="0 0 1920 1080" fill="none" xmlns="http://www.w3.org/2000/svg">
<rect width="1920" height="1080" fill="#FFE4E0"/>
<path d="M959.5 244.803C1188.77 244.803 1374.5 404.036 1374.5 600.303C1374.5 796.571 1188.77 955.803 959.5 955.803C730.227 955.803 544.5 796.571 544.5 600.303C544.5 404.036 730.227 244.803 959.5 244.803Z" fill="#BC0C0C" stroke="black"/>
<path d="M922.507 152.21C925.708 143.943 937.287 143.621 940.942 151.698L978.27 234.183C979.945 237.885 983.695 240.205 987.756 240.053L1097.39 235.936C1107.89 235.542 1111.81 249.534 1102.64 254.659L1020.1 300.773C1015.46 303.369 1013.66 309.15 1016.01 313.924L1052.23 387.403C1056.5 396.059 1047.25 405.14 1038.67 400.708L942.086 350.778C939.03 349.199 935.378 349.3 932.415 351.047L838.748 406.261C830.435 411.161 820.689 402.608 824.469 393.729L856.559 318.353C858.644 313.455 856.527 307.783 851.743 305.449L766.774 263.988C757.331 259.38 760.473 245.191 770.979 245.002L880.67 243.027C884.733 242.954 888.348 240.429 889.815 236.64L922.507 152.21Z" fill="#19880B"/>
<ellipse cx="789.804" cy="559.5" rx="155" ry="82.5" fill="white"/>
<ellipse cx="1136.8" cy="559.5" rx="155" ry="82.5" fill="white"/>
<path d="M930.804 702C945.704 766.463 987.057 771.055 996.804 702" stroke="black" stroke-width="20" stroke-linecap="round"/>
<path d="M840.804 423.65C823.593 401.327 759.822 401.573 737.804 423.65" stroke="black" stroke-width="20" stroke-linecap="round"/>
<path d="M840.804 423.65C823.593 401.327 759.822 401.573 737.804 423.65" stroke="black" stroke-width="20" stroke-linecap="round"/>
<path d="M1205.8 423.65C1188.59 401.327 1124.82 401.573 1102.8 423.65" stroke="black" stroke-width="20" stroke-linecap="round"/>
<ellipse cx="701.304" cy="727" rx="88.5" ry="54" fill="#FF9DB3"/>
<ellipse cx="1226.3" cy="727" rx="88.5" ry="54" fill="#FF9DB3"/>
<circle cx="279.456" cy="199.689" r="89" transform="rotate(4.90577 279.456 199.689)" fill="white"/>
<circle cx="348.965" cy="266.88" r="89" transform="rotate(4.90577 348.965 266.88)" fill="white"/>
<circle cx="403.777" cy="166.198" r="89" transform="rotate(4.90577 403.777 166.198)" fill="white"/>
<circle cx="239.219" cy="317.681" r="89" transform="rotate(4.90577 239.219 317.681)" fill="white"/>
<circle cx="322.963" cy="371.038" r="89" transform="rotate(4.90577 322.963 371.038)" fill="white"/>
<circle cx="416.597" cy="320.861" r="89" transform="rotate(4.90577 416.597 320.861)" fill="white"/>
<circle cx="463.036" cy="247.564" r="89" transform="rotate(4.90577 463.036 247.564)" fill="white"/>
<circle cx="89" cy="89" r="89" transform="matrix(-0.996337 0.0855173 0.0855173 0.996337 1721.43 97.4043)" fill="white"/>
<circle cx="89" cy="89" r="89" transform="matrix(-0.996337 0.0855173 0.0855173 0.996337 1651.92 164.595)" fill="white"/>
<circle cx="89" cy="89" r="89" transform="matrix(-0.996337 0.0855173 0.0855173 0.996337 1597.11 63.9131)" fill="white"/>
<circle cx="89" cy="89" r="89" transform="matrix(-0.996337 0.0855173 0.0855173 0.996337 1761.66 215.396)" fill="white"/>
<circle cx="89" cy="89" r="89" transform="matrix(-0.996337 0.0855173 0.0855173 0.996337 1677.92 268.753)" fill="white"/>
<circle cx="89" cy="89" r="89" transform="matrix(-0.996337 0.0855173 0.0855173 0.996337 1584.29 218.576)" fill="white"/>
<circle cx="89" cy="89" r="89" transform="matrix(-0.996337 0.0855173 0.0855173 0.996337 1537.85 145.279)" fill="white"/>
<circle cx="533.5" cy="417.5" r="20.5" fill="white"/>
<circle cx="1399.5" cy="417.5" r="20.5" fill="white"/>
<ellipse cx="875.804" cy="559" rx="69" ry="61" fill="black"/>
<ellipse cx="1222.8" cy="559" rx="69" ry="61" fill="black"/>
</svg>
