<svg width="831" height="833" viewBox="0 0 831 833" fill="none" xmlns="http://www.w3.org/2000/svg">
<path d="M415.5 120.803C644.773 120.803 830.5 280.036 830.5 476.303C830.5 672.571 644.773 831.803 415.5 831.803C186.227 831.803 0.5 672.571 0.5 476.303C0.5 280.036 186.227 120.803 415.5 120.803Z" fill="#BC0C0C" stroke="black"/>
<path d="M378.507 28.2103C381.708 19.9426 393.287 19.6211 396.942 27.6982L434.27 110.183C435.945 113.885 439.695 116.205 443.756 116.053L553.387 111.936C563.887 111.542 567.812 125.534 558.639 130.659L476.102 176.773C471.456 179.369 469.657 185.15 472.01 189.924L508.235 263.403C512.502 272.059 503.245 281.14 494.673 276.708L398.086 226.778C395.03 225.199 391.378 225.3 388.415 227.047L294.748 282.261C286.435 287.161 276.689 278.608 280.469 269.729L312.559 194.353C314.644 189.455 312.527 183.783 307.743 181.449L222.774 139.988C213.331 135.38 216.473 121.191 226.979 121.002L336.67 119.027C340.733 118.954 344.348 116.429 345.815 112.64L378.507 28.2103Z" fill="#19880B"/>
<ellipse cx="245.804" cy="435.5" rx="155" ry="82.5" fill="white"/>
<ellipse cx="592.804" cy="435.5" rx="155" ry="82.5" fill="white"/>
<path d="M386.804 578C401.704 642.463 443.057 647.055 452.804 578" stroke="black" stroke-width="20" stroke-linecap="round"/>
<path d="M296.804 299.65C279.593 277.327 215.822 277.573 193.804 299.65" stroke="black" stroke-width="20" stroke-linecap="round"/>
<path d="M661.804 299.65C644.593 277.327 580.822 277.573 558.804 299.65" stroke="black" stroke-width="20" stroke-linecap="round"/>
<ellipse cx="157.304" cy="603" rx="88.5" ry="54" fill="#FF9DB3"/>
<ellipse cx="682.304" cy="603" rx="88.5" ry="54" fill="#FF9DB3"/>
<ellipse cx="331.804" cy="435" rx="69" ry="61" fill="black"/>
<ellipse cx="678.804" cy="435" rx="69" ry="61" fill="black"/>
</svg>
