<svg width="461" height="649" viewBox="0 0 461 649" fill="none" xmlns="http://www.w3.org/2000/svg">
<circle cx="82.5" cy="448.5" r="200.5" fill="#228B22"/>
<circle cx="260.5" cy="274.5" r="200.5" fill="#228B22"/>
<circle cx="200.5" cy="47.5" r="200.5" fill="#228B22"/>
<circle cx="83.5" cy="147.5" r="200.5" fill="#228B22"/>
<path d="M191.999 398.5C191.999 398.5 239.536 493.5 179.499 557C95.0527 646.318 -0.000778719 567.5 -0.000778719 567.5" stroke="#064606" stroke-width="20" stroke-linecap="round"/>
<path d="M293 141.5C293 141.5 455.719 209 384 344C321.313 462 196.809 398.035 196.809 398.035" stroke="#064606" stroke-width="20" stroke-linecap="round"/>
<path d="M198.047 -103.141C198.047 -103.141 303.822 -112.957 341.203 -33.9676C393.783 77.1378 285.84 137.104 285.84 137.104" stroke="#064606" stroke-width="20" stroke-linecap="round"/>
<path d="M95.2556 337.354C95.2556 337.354 137.12 421.019 84.247 476.943C9.87583 555.605 -73.8368 486.19 -73.8368 486.19" stroke="#064606" stroke-width="20" stroke-linecap="round"/>
<path d="M184.205 111.016C184.205 111.016 327.51 170.463 264.348 289.356C209.139 393.277 99.4907 336.944 99.4907 336.944" stroke="#064606" stroke-width="20" stroke-linecap="round"/>
<path d="M100.582 -104.436C100.582 -104.436 193.737 -113.081 226.657 -43.5163C272.964 54.3331 177.9 107.145 177.9 107.145" stroke="#064606" stroke-width="20" stroke-linecap="round"/>
<path d="M-13.2079 281.42C-13.2079 281.42 23.4688 354.717 -22.8523 403.711C-88.0071 472.625 -161.346 411.812 -161.346 411.812" stroke="#064606" stroke-width="20" stroke-linecap="round"/>
<path d="M64.72 83.1314C64.72 83.1314 190.266 135.211 134.931 239.371C86.5645 330.414 -9.4961 281.062 -9.4961 281.062" stroke="#064606" stroke-width="20" stroke-linecap="round"/>
<path d="M-8.5409 -105.621C-8.5409 -105.621 73.0699 -113.195 101.911 -52.2509C142.479 33.4726 59.1957 79.7395 59.1957 79.7395" stroke="#064606" stroke-width="20" stroke-linecap="round"/>
</svg>
