<svg width="422" height="676" viewBox="0 0 422 676" fill="none" xmlns="http://www.w3.org/2000/svg">
<circle cx="200.5" cy="200.5" r="200.5" transform="matrix(-1 0 0 1 579 275)" fill="#228B22"/>
<circle cx="200.5" cy="200.5" r="200.5" transform="matrix(-1 0 0 1 401 101)" fill="#228B22"/>
<circle cx="200.5" cy="200.5" r="200.5" transform="matrix(-1 0 0 1 461 -126)" fill="#228B22"/>
<circle cx="200.5" cy="200.5" r="200.5" transform="matrix(-1 0 0 1 578 -26)" fill="#228B22"/>
<path d="M260.264 426.5C260.264 426.5 212.728 521.5 272.764 585C357.211 674.318 452.264 595.5 452.264 595.5" stroke="#064606" stroke-width="20" stroke-linecap="round"/>
<path d="M159.263 169.5C159.263 169.5 -3.45559 237 68.2633 372C130.951 490 255.454 426.035 255.454 426.035" stroke="#064606" stroke-width="20" stroke-linecap="round"/>
<path d="M254.216 -75.1406C254.216 -75.1406 148.441 -84.9567 111.06 -5.96756C58.481 105.138 166.423 165.104 166.423 165.104" stroke="#064606" stroke-width="20" stroke-linecap="round"/>
<path d="M357.008 365.354C357.008 365.354 315.143 449.019 368.017 504.943C442.388 583.605 526.1 514.19 526.1 514.19" stroke="#064606" stroke-width="20" stroke-linecap="round"/>
<path d="M268.059 139.016C268.059 139.016 124.754 198.463 187.916 317.356C243.124 421.277 352.773 364.944 352.773 364.944" stroke="#064606" stroke-width="20" stroke-linecap="round"/>
<path d="M351.682 -76.4362C351.682 -76.4362 258.527 -85.0812 225.606 -15.5163C179.3 82.3331 274.364 135.145 274.364 135.145" stroke="#064606" stroke-width="20" stroke-linecap="round"/>
<path d="M387.544 111.131C387.544 111.131 261.998 163.211 317.332 267.371C365.699 358.414 461.76 309.062 461.76 309.062" stroke="#064606" stroke-width="20" stroke-linecap="round"/>
<path d="M460.805 -77.6214C460.805 -77.6214 379.194 -85.195 350.353 -24.2509C309.785 61.4726 393.068 107.74 393.068 107.74" stroke="#064606" stroke-width="20" stroke-linecap="round"/>
</svg>
